<svg xmlns="http://www.w3.org/2000/svg" viewBox="0 0 400 300">
  <defs>
    <radialGradient id="bg" cx="50%" cy="50%" r="50%"><stop offset="0%" stop-color="#F3F8FF"/><stop offset="100%" stop-color="#E3F2FD"/></radialGradient>
    <linearGradient id="box" x1="0" y1="0" x2="0" y2="1"><stop offset="0%" stop-color="#42A5F5"/><stop offset="100%" stop-color="#1565C0"/></linearGradient>
  </defs>
  <rect width="400" height="300" fill="url(#bg)" rx="12"/>
  <ellipse cx="200" cy="260" rx="80" ry="10" fill="#00000010"/>
  <!-- box -->
  <rect x="115" y="60" width="170" height="195" rx="12" fill="url(#box)"/>
  <rect x="125" y="70" width="150" height="175" rx="10" fill="none" stroke="#90CAF9" stroke-width="2"/>
  <!-- sparkle icons -->
  <circle cx="200" cy="120" r="25" fill="#FFFFFF" opacity="0.2"/>
  <path d="M200 100 L203 115 L218 118 L203 121 L200 136 L197 121 L182 118 L197 115Z" fill="#FFFFFF" opacity="0.8"/>
  <text x="200" y="170" text-anchor="middle" fill="#FFFFFF" font-family="Arial,sans-serif" font-size="16" font-weight="bold">DETERGENT</text>
  <text x="200" y="192" text-anchor="middle" fill="#BBDEFB" font-family="Arial,sans-serif" font-size="13">POWDER</text>
  <text x="200" y="220" text-anchor="middle" fill="#90CAF9" font-family="Arial,sans-serif" font-size="11">Active Clean · 1kg</text>
  <!-- bubbles -->
  <circle cx="105" cy="80" r="8" fill="#E3F2FD" opacity="0.5" stroke="#90CAF9" stroke-width="0.5"/>
  <circle cx="300" cy="95" r="6" fill="#E3F2FD" opacity="0.4" stroke="#90CAF9" stroke-width="0.5"/>
  <circle cx="310" cy="220" r="10" fill="#E3F2FD" opacity="0.3" stroke="#90CAF9" stroke-width="0.5"/>
  <circle cx="85" cy="200" r="7" fill="#E3F2FD" opacity="0.35" stroke="#90CAF9" stroke-width="0.5"/>
</svg>
